# AST/ASF file generated using VICON BodyLanguage
# -----------------------------------------------
:version 1.10
:name VICON
:units
  mass 1.0
  length 0.45
  angle deg
:documentation
   .ast/.asf automatically generated from VICON data using
   VICON BodyBuilder and BodyLanguage model FoxedUp or BRILLIANT.MOD
:root
   order TX TY TZ RX RY RZ
   axis XYZ
   position 0 0 0  
   orientation 0 0 0 
:bonedata
  begin
     id 1 
     name lhipjoint
     direction 0.630082 -0.636569 0.44472 
     length 2.82754 
     axis 0 0 0  XYZ
  end
  begin
     id 2 
     name lfemur
     direction 0.34202 -0.939693 0  
     length 7.26371  
     axis 0 0 20  XYZ
    dof rx ry rz
    limits (-160.0 20.0)
           (-70.0 70.0)
           (-60.0 70.0)
  end
  begin
     id 3 
     name ltibia
     direction 0.34202 -0.939693 0   
     length 7.88616   
     axis 0 0 20   XYZ
    dof rx
    limits (-10.0 170.0)
  end
  begin
     id 4 
     name lfoot
     direction 0.0603448 -0.165796 0.984312   
     length 1.77861   
     axis -90 7.62852e-016 20   XYZ
    dof rx rz
    limits (-45.0 90.0)
           (-70.0 20.0)
  end
  begin
     id 5 
     name ltoes
     direction 1.53577e-011 -4.21876e-011 1   
     length 0.902235   
     axis -90 7.62852e-016 20   XYZ
    dof rx
    limits (-90.0 20.0)
  end
  begin
     id 6 
     name rhipjoint
     direction -0.656778 -0.61817 0.431866   
     length 2.9117  
     axis 0 0 0  XYZ 
  end
  begin
     id 7 
     name rfemur
     direction -0.34202 -0.939693 0   
     length 6.81603   
     axis 0 0 -20   XYZ
    dof rx ry rz
    limits (-160.0 20.0)
           (-70.0 70.0)
           (-70.0 60.0)
  end
  begin
     id 8 
     name rtibia
     direction -0.34202 -0.939693 0   
     length 8.05997   
     axis 0 0 -20   XYZ
    dof rx
    limits (-10.0 170.0)
 end
 begin
     id 9 
     name rfoot
     direction -0.0862404 -0.236944 0.967688   
     length 1.84899  
     axis -90 -7.62852e-016 -20   XYZ
    dof rx rz
    limits (-45.0 90.0)
           (-20.0 70.0)
  end
  begin
     id 10 
     name rtoes
     direction -1.53561e-011 -4.21798e-011 1   
     length 0.931579   
     axis -90 -7.62852e-016 -20   XYZ
    dof rx
    limits (-90.0 20.0)
  end
  begin
     id 11 
     name lowerback
     direction -0.0110203 0.991769 -0.127564   
     length 2.05686   
     axis 0 0 0   XYZ
    dof rx ry rz
    limits (-20.0 45.0)
           (-30.0 30.0)
           (-30.0 30.0)
  end
  begin
     id 12 
     name upperback
     direction 0.0109719 0.99993 -0.00432479   
     length 2.06234   
     axis 0 0 0   XYZ
    dof rx ry rz
    limits (-20.0 45.0)
           (-30.0 30.0)
           (-30.0 30.0)
  end
  begin
     id 13 
     name thorax
     direction 0.0173308 0.998351 0.0547306   
     length 2.09856   
     axis 0 0 0   XYZ
    dof rx ry rz
    limits (-20.0 45.0)
           (-30.0 30.0)
           (-30.0 30.0)
  end
  begin
     id 14 
     name lowerneck
     direction -0.0311736 0.989033 0.144366   
     length 1.98151   
     axis 0 0 0   XYZ
    dof rx ry rz
    limits (-20.0 45.0)
           (-30.0 30.0)
           (-30.0 30.0)
  end
  begin
     id 15 
     name upperneck
     direction 0.0421057 0.975772 -0.214698   
     length 2.01457   
     axis 0 0 0   XYZ
    dof rx ry rz
    limits (-20.0 45.0)
           (-30.0 30.0)
           (-30.0 30.0)
  end
  begin
     id 16
     name head
     direction 0.0136911 0.995958 -0.0887718  
     length 2.03562  
     axis 0 0 0   XYZ
    dof rx ry rz
    limits (-20.0 45.0)
           (-30.0 30.0)
           (-30.0 30.0)
  end
  begin
     id 17 
     name lclavicle
     direction 0.915335 0.396201 0.0720134  
     length 4.16217  
     axis 0 0 0   XYZ
    dof ry rz
    limits (-20.0 10.0)
           (0.0 20.0)
  end
  begin
     id 18 
     name lhumerus
     direction 1 -4.48965e-011 6.383e-018   
     length 4.93042   
     axis -180 -30 -90   XYZ
    dof rx ry rz
    limits (-60.0 90.0)
           (-90.0 90.0)
           (-90.0 90.0)
  end
  begin
     id 19
     name lradius
     direction 1 -4.48972e-011 8.8689e-027   
     length 3.68177   
     axis -180 -30 -90   XYZ
    dof rx
    limits (-10.0 170.0)
  end
  begin
     id 20
     name lwrist
     direction 1 -4.48953e-011 1.17971e-026   
     length 1.84089   
     axis -7.69454e-015 90 90   XYZ
    dof ry
    limits (-180.0 0.0)
 end
  begin
     id 21 
     name lhand
     direction 1 -4.49027e-011 2.35802e-026   
     length 0.721479   
     axis -1.50533e-014 90 90   XYZ
    dof rx rz
    limits (-90.0 90.0)
           (-45.0 45.0)
  end
  begin
     id 22 
     name lfingers
     direction 1 -4.48915e-011 4.72027e-026   
     length 0.581675   
     axis -3.01059e-014 90 90   XYZ
    dof rx
    limits (0.0 90.0)
  end
  begin
     id 23
     name lthumb
     direction 0.707107 -6.34948e-011 0.707107   
     length 0.835172   
     axis -90 45 -5.12164e-014   XYZ
    dof rx rz
    limits (-45.0 45.0)
           (-45.0 45.0)
  end
  begin
     id 24 
     name rclavicle
     direction -0.882781 0.469197 0.0234974   
     length 3.95647  
     axis 0 0 0   XYZ 
    dof ry rz
    limits (-10.0 20.0)
           (-20.0 0.0)
  end
  begin
     id 25 
     name rhumerus
     direction -1 -4.48965e-011 -1.54906e-018  
     length 5.07905   
     axis -180 30 90   XYZ
    dof rx ry rz
    limits (-90.0 60.0)
           (-90.0 90.0)
           (-90.0 90.0)
  end
  begin
     id 26 
     name rradius
     direction -1 -4.48972e-011 5.47489e-027   
     length 3.54394   
     axis -180 30 90   XYZ
    dof rx
    limits (-10.0 170.0)
  end
  begin
     id 27 
     name rwrist
     direction -1 -4.48955e-011 1.17969e-026   
     length 1.77197   
     axis -7.69454e-015 -90 -90   XYZ
    dof ry
    limits (-180.0 0.0)
  end
  begin
     id 28
     name rhand
     direction -1 -4.48982e-011 2.35888e-026   
     length 0.681156   
     axis -1.50533e-014 -90 -90   XYZ
    dof rx rz
    limits (-90.0 90.0)
           (-45.0 45.0)
  end
  begin
     id 29
     name rfingers
     direction -1 -4.48955e-011 4.71877e-026   
     length 0.549165   
     axis -3.01059e-014 -90 -90   XYZ
    dof rx
    limits (0.0 90.0)
  end
  begin
     id 30
     name rthumb
     direction -0.707107 -6.3491e-011 0.707107   
     length 0.788495   
     axis -90 -45 5.12164e-014   XYZ
    dof rx rz
    limits (-45.0 45.0)
           (-45.0 45.0)
  end
:hierarchy
  begin
    root lhipjoint rhipjoint lowerback
    lhipjoint lfemur
    lfemur ltibia
    ltibia lfoot
    lfoot ltoes
    rhipjoint rfemur
    rfemur rtibia
    rtibia rfoot
    rfoot rtoes
    lowerback upperback
    upperback thorax
    thorax lowerneck lclavicle rclavicle
    lowerneck upperneck
    upperneck head
    lclavicle lhumerus
    lhumerus lradius
    lradius lwrist
    lwrist lhand lthumb
    lhand lfingers
    rclavicle rhumerus
    rhumerus rradius
    rradius rwrist
    rwrist rhand rthumb
    rhand rfingers
  end

#!OML:ASF H:\Bending\Project 1\Capture day 1\Session 1\Subject.ASF
:FULLY-SPECIFIED
:DEGREES
369
root -10.7677 17.996 -16.4584 -135.997 88.2258 -140.606
lowerback 5.98137 0.271338 1.10285
upperback -2.92476 0.606579 1.98293
thorax -6.4207 0.310623 1.37975
lowerneck -21.2361 -3.52929 -5.90818
upperneck 30.6167 -3.15654 2.14272
head 14.1852 -1.5628 1.34853
rclavicle 1.6524e-015 -2.26615e-014
rhumerus -47.5439 -7.21624 -69.9892
rradius 33.9272
rwrist 13.0622
rhand -14.5963 -12.696
rfingers 7.12502
rthumb 11.5541 -42.3575
lclavicle 1.6524e-015 -2.26615e-014
lhumerus -39.8223 6.86719 86.8541
lradius 27.5753
lwrist 18.9593
lhand -30.729 8.01809
lfingers 7.12502
lthumb -4.02144 37.9599
rfemur 4.2716 -4.6168 16.5006
rtibia -2.8625e-014
rfoot -11.9964 -16.3609
rtoes 18.2073
lfemur -11.4768 -29.2671 -12.8627
ltibia 23.2399
lfoot -34.0363 26.3202
ltoes -7.17587
370
root -10.7737 17.9974 -16.4614 -134.976 88.3595 -139.556
lowerback 5.94326 0.253977 1.05523
upperback -2.90539 0.576986 1.97699
thorax -6.37811 0.297726 1.40366
lowerneck -21.244 -3.52605 -5.9328
upperneck 30.6235 -3.1527 2.1707
head 14.1908 -1.5604 1.3647
rclavicle -1.00635e-015 -2.98177e-014
rhumerus -47.5472 -7.13537 -70.1386
rradius 34.0377
rwrist 12.9021
rhand -14.5416 -12.9263
rfingers 7.12502
rthumb 11.6068 -42.5848
lclavicle -1.00635e-015 -2.98177e-014
lhumerus -39.9226 7.40499 86.5095
lradius 26.9707
lwrist 18.4661
lhand -30.7607 8.0323
lfingers 7.12502
lthumb -4.05204 37.9735
rfemur 4.22777 -4.49697 16.4285
rtibia 4.77083e-015
rfoot -11.7508 -16.5247
rtoes 17.0264
lfemur -11.3393 -29.6896 -12.9802
ltibia 23.0996
lfoot -34.4786 26.5812
ltoes -6.16876
371
root -10.7804 17.9992 -16.4642 -133.243 88.4525 -137.807
lowerback 5.90673 0.235543 1.05081
upperback -2.89556 0.550176 1.96998
thorax -6.34617 0.284446 1.40184
lowerneck -21.259 -3.52523 -5.90019
upperneck 30.6685 -3.15786 2.15757
head 14.213 -1.56045 1.35322
rclavicle 6.58474e-016 1.03368e-014
rhumerus -47.584 -7.05477 -70.2803
rradius 34.1444
rwrist 12.7572
rhand -14.4621 -13.0221
rfingers 7.12502
rthumb 11.6835 -42.6763
lclavicle 6.58474e-016 1.03368e-014
lhumerus -40.0113 7.86659 86.1828
lradius 26.4271
lwrist 18.003
lhand -30.7235 8.02028
lfingers 7.12502
lthumb -4.01611 37.9622
rfemur 4.1675 -4.3958 16.4053
rtibia -1.11319e-014
rfoot -11.4905 -16.6841
rtoes 15.9863
lfemur -11.2438 -30.0413 -13.0372
ltibia 22.9826
lfoot -34.8462 26.7883
ltoes -5.27323
372
root -10.7879 18.0015 -16.4661 -130.793 88.493 -135.347
lowerback 5.87889 0.21793 1.08968
upperback -2.89012 0.529386 1.9723
thorax -6.32376 0.272678 1.38476
lowerneck -21.2723 -3.5335 -5.84938
upperneck 30.7277 -3.17558 2.12417
head 14.241 -1.56637 1.32824
rclavicle -2.01269e-015 1.59028e-015
rhumerus -47.6307 -7.02363 -70.3728
rradius 34.1789
rwrist 12.7033
rhand -14.4267 -12.878
rfingers 7.12502
rthumb 11.7176 -42.5302
lclavicle -2.01269e-015 1.59028e-015
lhumerus -40.0872 8.14235 85.9544
lradius 25.9749
lwrist 17.6814
lhand -30.6632 7.99685
lfingers 7.12502
lthumb -3.95789 37.9398
rfemur 4.10447 -4.31895 16.4381
rtibia 1.27222e-014
rfoot -11.2511 -16.8054
rtoes 15.2961
lfemur -11.191 -30.2305 -13.0246
ltibia 22.8977
lfoot -35.0448 26.9073
ltoes -4.67024
373
root -10.7959 18.0039 -16.4666 -127.965 88.488 -132.504
lowerback 5.86361 0.205707 1.15671
upperback -2.88149 0.519498 1.98839
thorax -6.30537 0.265544 1.36496
lowerneck -21.2767 -3.55635 -5.81632
upperneck 30.7735 -3.2109 2.09692
head 14.2626 -1.58114 1.30543
rclavicle 2.85753e-016 -7.95139e-015
rhumerus -47.6665 -7.07365 -70.3918
rradius 34.0993
rwrist 12.7727
rhand -14.5052 -12.4748
rfingers 7.12502
rthumb 11.6419 -42.1314
lclavicle 2.85753e-016 -7.95139e-015
lhumerus -40.1512 8.17211 85.8802
lradius 25.6437
lwrist 17.5762
lhand -30.6359 7.98031
lfingers 7.12502
lthumb -3.93151 37.9238
rfemur 4.05225 -4.26323 16.5141
rtibia 1.59028e-014
rfoot -11.0534 -16.8741
rtoes 14.9901
lfemur -11.1666 -30.2486 -12.9592
ltibia 22.8434
lfoot -35.0746 26.9367
ltoes -4.3542
374
root -10.8042 18.006 -16.4661 -125.071 88.4629 -129.584
lowerback 5.8604 0.203832 1.22714
upperback -2.86369 0.524444 2.01443
thorax -6.28457 0.265851 1.35193
lowerneck -21.2717 -3.59358 -5.8172
upperneck 30.7891 -3.26513 2.09577
head 14.2712 -1.60464 1.29519
rclavicle -1.30452e-015 -1.03368e-014
rhumerus -47.6828 -7.19898 -70.3448
rradius 33.9121
rwrist 12.9367
rhand -14.7375 -11.9049
rfingers 7.12502
rthumb 11.4179 -41.574
lclavicle -1.30452e-015 -1.03368e-014
lhumerus -40.2092 7.9738 85.962
lradius 25.4524
lwrist 17.6959
lhand -30.6792 7.98307
lfingers 7.12502
lthumb -3.97338 37.9258
rfemur 4.01638 -4.21422 16.6054
rtibia -7.95139e-015
rfoot -10.8942 -16.9006
rtoes 14.9067
lfemur -11.147 -30.1669 -12.8759
ltibia 22.8072
lfoot -35.0267 26.9067
ltoes -4.1516
375
root -10.8125 18.0078 -16.4651 -122.096 88.4505 -126.575
lowerback 5.86553 0.214263 1.27668
upperback -2.83524 0.543857 2.04116
thorax -6.25769 0.27412 1.34967
lowerneck -21.2634 -3.63765 -5.84482
upperneck 30.7763 -3.33178 2.12658
head 14.2685 -1.63242 1.29989
rclavicle -1.68967e-015 6.36111e-015
rhumerus -47.6841 -7.35665 -70.2676
rradius 33.6674
rwrist 13.1212
rhand -15.1105 -11.3422
rfingers 7.12502
rthumb 11.0582 -41.0309
lclavicle -1.68967e-015 6.36111e-015
lhumerus -40.27 7.64244 86.1433
lradius 25.4014
lwrist 17.9754
lhand -30.7895 8.00503
lfingers 7.12502
lthumb -4.07988 37.9457
rfemur 3.99255 -4.15137 16.6817
rtibia 1.59028e-015
rfoot -10.7546 -16.9118
rtoes 14.793
lfemur -11.1099 -30.0898 -12.8124
ltibia 22.7721
lfoot -35.0258 26.8621
ltoes -3.83133
376
root -10.8206 18.0092 -16.4643 -118.751 88.474 -123.189
lowerback 5.87395 0.234003 1.29221
upperback -2.79965 0.571885 2.05951
thorax -6.22545 0.287725 1.35678
lowerneck -21.2602 -3.67666 -5.87874
upperneck 30.7529 -3.39737 2.18157
head 14.2628 -1.65718 1.3155
rclavicle 1.2921e-015 3.06128e-014
rhumerus -47.6823 -7.48972 -70.2023
rradius 33.4338
rwrist 13.2495
rhand -15.5543 -10.9684
rfingers 7.12502
rthumb 10.6301 -40.6795
lclavicle 1.2921e-015 3.06128e-014
lhumerus -40.3385 7.31351 86.335
lradius 25.4687
lwrist 18.2999
lhand -30.9199 8.0334
lfingers 7.12502
lthumb -4.20582 37.9716
rfemur 3.97088 -4.05864 16.7229
rtibia -2.54444e-014
rfoot -10.6189 -16.9355
rtoes 14.4596
lfemur -11.0454 -30.0913 -12.792
ltibia 22.7257
lfoot -35.1536 26.8397
ltoes -3.26355
377
root -10.8288 18.0102 -16.4643 -114.742 88.534 -119.141
lowerback 5.8822 0.255466 1.27622
upperback -2.76342 0.598499 2.06603
thorax -6.19255 0.30152 1.36941
lowerneck -21.267 -3.69979 -5.90052
upperneck 30.7412 -3.44654 2.24549
head 14.2635 -1.67205 1.33578
rclavicle -1.3418e-015 -3.57812e-015
rhumerus -47.6882 -7.55796 -70.173
rradius 33.2665
rwrist 13.2848
rhand -15.9608 -10.8917
rfingers 7.12502
rthumb 10.238 -40.6226
lclavicle -1.3418e-015 -3.57812e-015
lhumerus -40.4114 7.10894 86.4573
lradius 25.6156
lwrist 18.5488
lhand -31.0025 8.05
lfingers 7.12502
lthumb -4.28557 37.9866
rfemur 3.9438 -3.93466 16.7261
rtibia 4.77083e-015
rfoot -10.4906 -16.9839
rtoes 13.9053
lfemur -10.9609 -30.1733 -12.815
ltibia 22.6677
lfoot -35.4003 26.8479
ltoes -2.50814
378
root -10.837 18.0107 -16.4652 -110.123 88.6094 -114.488
lowerback 5.88912 0.269766 1.24397
upperback -2.733 0.613676 2.06462
thorax -6.1649 0.310085 1.3842
lowerneck -21.2819 -3.70293 -5.90487
upperneck 30.7558 -3.46955 2.3037
head 14.2756 -1.6741 1.35591
rclavicle 1.77664e-015 -1.78906e-014
rhumerus -47.7064 -7.55918 -70.1713
rradius 33.1853
rwrist 13.2487
rhand -16.2188 -11.1019
rfingers 7.12502
rthumb 9.98902 -40.8449
lclavicle 1.77664e-015 -1.78906e-014
lhumerus -40.4784 7.08676 86.476
lradius 25.8007
lwrist 18.6441
lhand -30.9824 8.04162
lfingers 7.12502
lthumb -4.26619 37.9786
rfemur 3.91164 -3.7963 16.7039
rtibia -3.18055e-015
rfoot -10.3962 -17.047
rtoes 13.3318
lfemur -10.8789 -30.2636 -12.8611
ltibia 22.6104
lfoot -35.6625 26.8672
ltoes -1.81029
379
root -10.8456 18.0106 -16.467 -105.612 88.6714 -109.951
lowerback 5.89504 0.270713 1.21406
upperback -2.71197 0.611581 2.06403
thorax -6.14633 0.310085 1.40054
lowerneck -21.2985 -3.69096 -5.9014
upperneck 30.7964 -3.46745 2.34865
head 14.2978 -1.66598 1.37436
rclavicle -3.37934e-015 -3.57812e-015
rhumerus -47.7336 -7.52674 -70.1633
rradius 33.1726
rwrist 13.2034
rhand -16.2512 -11.4825
rfingers 7.12502
rthumb 9.95777 -41.227
lclavicle -3.37934e-015 -3.57812e-015
lhumerus -40.5268 7.22415 86.4134
lradius 25.9938
lwrist 18.5753
lhand -30.8489 8.00662
lfingers 7.12502
lthumb -4.1372 37.9462
rfemur 3.88279 -3.67282 16.6757
rtibia 3.02153e-014
rfoot -10.373 -17.0979
rtoes 13.0446
lfemur -10.8276 -30.257 -12.9012
ltibia 22.5725
lfoot -35.7945 26.8666
ltoes -1.4832
